<?xml version="1.0" encoding="utf-8"?>
<svg width="745px" height="583px" viewBox="0 0 745 583" version="1.1" xmlns:xlink="http://www.w3.org/1999/xlink" xmlns="http://www.w3.org/2000/svg">
  <defs>
    <rect width="745" height="583" id="artboard_1" />
    <clipPath id="clip_1">
      <use xlink:href="#artboard_1" clip-rule="evenodd" />
    </clipPath>
  </defs>
  <g id="fao-light" clip-path="url(#clip_1)">
    <use xlink:href="#artboard_1" stroke="none" fill="#FFFFFF" fill-opacity="0" />
    <g id="FI" transform="translate(-29.21753 -147.63907)" artboard="4f8df0de-c377-4687-a7bd-b4e7db6e002d">
      <path d="M467.388 164.266L31.0923 164.266L31.0923 195.358L65.1936 195.358Q90.6024 195.358 98.7934 201.042Q106.984 206.725 106.984 221.101L106.984 598.89Q106.984 611.26 98.6262 619.451Q90.2681 627.642 74.8891 627.642L31.0923 627.642L31.0923 658.734L292.87 658.734L292.87 627.642L246.064 627.642Q231.019 627.642 219.987 617.946Q212.297 611.26 212.297 596.884L212.297 416.682L245.97 416.682Q270.642 416.682 289.477 428.718Q308.311 440.754 318.981 461.983Q329.651 483.213 330.983 519.989L360.404 519.989L360.404 291.644L330.983 291.644Q318.649 386.593 238.97 386.593L212.297 386.593L212.297 221.101Q212.297 208.731 219.652 202.045Q227.007 195.358 243.055 195.358L316.273 195.358Q376.451 195.358 405.37 225.615Q434.29 255.871 442.314 334.772L472.403 334.772L467.388 164.266ZM772.962 164.266L519.543 164.266L519.543 195.358L563.674 195.358Q579.722 195.358 587.244 202.045Q594.766 208.731 594.766 222.773L594.766 601.23Q594.766 614.269 586.575 620.955Q578.384 627.642 558.325 627.642L519.543 627.642L519.543 658.734L772.962 658.734L772.962 627.642L732.174 627.642Q715.124 627.642 706.097 620.287Q699.076 614.603 699.076 601.23L699.076 218.427Q699.076 207.06 705.763 201.209Q712.449 195.358 727.159 195.358L772.962 195.358L772.962 164.266Z" />
    </g>
    <path d="M-29.2175 231.38L769.919 231.38L769.919 297.594L-29.2175 297.594L-29.2175 231.38Z" id="Rectangle" fill="#E9FFF9" fill-rule="evenodd" stroke="none" artboard="444efe60-22c7-40ea-bdf6-cd3c90f84b1d" />
    <g id="FRINNO--IO" transform="translate(107.77728 238.22974)" artboard="6ec4a6a0-b2ea-4b0b-a56f-aaabbe6f4f79">
      <path d="M347.269 25.2611Q347.269 29.5348 345.791 32.7601Q344.313 35.9854 341.567 37.7128Q338.822 39.4403 335.247 39.4403Q331.712 39.4403 328.946 37.7128Q326.18 35.9854 324.672 32.7901Q323.164 29.5947 323.145 25.4209L323.145 23.7833Q323.145 19.5295 324.652 16.2743Q326.16 13.0191 328.906 11.2916Q331.652 9.56413 335.207 9.56413Q338.762 9.56413 341.508 11.2716Q344.254 12.9791 345.751 16.1844Q347.249 19.3897 347.269 23.6435L347.269 25.2611ZM531.278 32.7601Q532.756 29.5348 532.756 25.2611L532.756 23.6435Q532.736 19.3897 531.238 16.1844Q529.741 12.9791 526.995 11.2716Q524.249 9.56413 520.694 9.56413Q517.139 9.56413 514.393 11.2916Q511.647 13.0191 510.139 16.2743Q508.632 19.5295 508.632 23.7833L508.632 25.4209Q508.651 29.5947 510.159 32.7901Q511.667 35.9854 514.433 37.7128Q517.199 39.4403 520.734 39.4403Q524.309 39.4403 527.055 37.7128Q529.8 35.9854 531.278 32.7601ZM19.7111 26.719L8.00825 26.719L8.00825 39.0409L2.95566 39.0409L2.95566 9.96355L21.4286 9.96355L21.4286 14.0376L8.00825 14.0376L8.00825 22.6849L19.7111 22.6849L19.7111 26.719ZM76.807 27.8573L71.1753 27.8573L71.1753 39.0409L66.1227 39.0409L66.1227 9.96355L76.3477 9.96355Q81.3803 9.96355 84.1163 12.2221Q86.8523 14.4807 86.8523 18.7581Q86.8523 21.6764 85.4444 23.645Q84.0364 25.6137 81.5201 26.6731L88.0505 38.7816L88.0505 39.0409L82.6385 39.0409L76.807 27.8573ZM132.645 39.0409L137.677 39.0409L137.677 9.96355L132.645 9.96355L132.645 39.0409ZM207.655 39.0409L202.602 39.0409L189.641 18.4112L189.641 39.0409L184.588 39.0409L184.588 9.96355L189.641 9.96355L202.642 30.6732L202.642 9.96355L207.655 9.96355L207.655 39.0409ZM272.339 39.0409L277.392 39.0409L277.392 9.96355L272.379 9.96355L272.379 30.6732L259.378 9.96355L254.326 9.96355L254.326 39.0409L259.378 39.0409L259.378 18.4112L272.339 39.0409ZM462.639 39.0409L457.607 39.0409L457.607 9.96355L462.639 9.96355L462.639 39.0409ZM342.217 23.7433Q342.217 18.9104 340.389 16.3342Q338.562 13.758 335.207 13.758Q331.932 13.758 330.084 16.3242Q328.237 18.8905 328.197 23.5836L328.197 25.2611Q328.197 30.0541 330.064 32.6702Q331.932 35.2864 335.247 35.2864Q338.602 35.2864 340.409 32.7302Q342.217 30.1739 342.217 25.2611L342.217 23.7433ZM525.876 16.3342Q527.704 18.9104 527.704 23.7433L527.704 25.2611Q527.704 30.1739 525.896 32.7302Q524.089 35.2864 520.734 35.2864Q517.419 35.2864 515.551 32.6702Q513.684 30.0541 513.684 25.2611L513.684 23.5836Q513.724 18.8905 515.571 16.3242Q517.419 13.758 520.694 13.758Q524.049 13.758 525.876 16.3342ZM71.1753 23.7833L76.3677 23.7833Q78.9239 23.7833 80.3618 22.4952Q81.7997 21.2071 81.7997 18.9703Q81.7997 16.6338 80.4717 15.3556Q79.1436 14.0775 76.5075 14.0376L71.1753 14.0376L71.1753 23.7833ZM391.464 28.6362L401.949 28.6362L401.949 24.7219L391.464 24.7219L391.464 28.6362Z" />
    </g>
  </g>
</svg>