<?xml version="1.0" encoding="utf-8"?>
<svg width="501.00006px" height="385.77002px" viewBox="0 0 501.00006 385.77002" version="1.1" xmlns:xlink="http://www.w3.org/1999/xlink" xmlns="http://www.w3.org/2000/svg">
  <defs>
    <rect width="501.00003" height="385.77002" id="artboard_1" />
    <clipPath id="clip_1">
      <use xlink:href="#artboard_1" clip-rule="evenodd" />
    </clipPath>
  </defs>
  <g id="fao-dark" clip-path="url(#clip_1)">
    <use xlink:href="#artboard_1" stroke="none" fill="#000000" fill-opacity="0" />
    <g id="FI" fill="#FFFFFF" transform="translate(31.312502 -15.030001)" artboard="a591ae95-68de-440e-a3a8-8eecf832c5fb">
      <path d="M256.459 90.3407L17.0606 90.3407L17.0606 107.401L35.7722 107.401Q49.7142 107.401 54.2087 110.52Q58.7031 113.639 58.7031 121.527L58.7031 328.822Q58.7031 335.61 54.1169 340.104Q49.5308 344.599 41.0922 344.599L17.0606 344.599L17.0606 361.659L160.7 361.659L160.7 344.599L135.017 344.599Q126.762 344.599 120.708 339.279Q116.489 335.61 116.489 327.721L116.489 228.843L134.966 228.843Q148.503 228.843 158.838 235.448Q169.173 242.052 175.027 253.701Q180.882 265.349 181.613 285.529L197.756 285.529L197.756 160.234L181.613 160.234Q174.845 212.333 131.125 212.333L116.489 212.333L116.489 121.527Q116.489 114.739 120.525 111.07Q124.561 107.401 133.366 107.401L173.541 107.401Q206.562 107.401 222.43 124.003Q238.298 140.605 242.701 183.899L259.211 183.899L256.459 90.3407ZM424.13 90.3407L285.077 90.3407L285.077 107.401L309.292 107.401Q318.098 107.401 322.225 111.07Q326.353 114.739 326.353 122.444L326.353 330.106Q326.353 337.261 321.858 340.93Q317.364 344.599 306.357 344.599L285.077 344.599L285.077 361.659L424.13 361.659L424.13 344.599L401.75 344.599Q392.394 344.599 387.441 340.563Q383.588 337.444 383.588 330.106L383.588 120.059Q383.588 113.822 387.257 110.612Q390.926 107.401 398.998 107.401L424.13 107.401L424.13 90.3407Z" />
    </g>
    <path d="M31.3125 192.885L469.688 192.885L469.688 229.208L31.3125 229.208L31.3125 192.885Z" id="Rectangle" fill="#000000" fill-rule="evenodd" stroke="none" artboard="9f3a241a-8cd3-4561-aa52-dd80eba64e72" />
    <g id="FRINNO--IO" fill="#FFFFFF" transform="translate(106.4625 196.6425)" artboard="974bb3eb-8137-4e6e-bad8-a68a85f71cef">
      <path d="M191.091 13.9175Q191.091 16.2686 190.278 18.0428Q189.465 19.8171 187.954 20.7675Q186.443 21.7178 184.477 21.7178Q182.532 21.7178 181.011 20.7675Q179.489 19.8171 178.66 18.0593Q177.83 16.3015 177.819 14.0054L177.819 13.1045Q177.819 10.7644 178.649 8.97363Q179.478 7.18286 180.989 6.23254Q182.499 5.28223 184.455 5.28223Q186.41 5.28223 187.921 6.22156Q189.432 7.16089 190.256 8.92419Q191.08 10.6875 191.091 13.0276L191.091 13.9175ZM292.348 18.0428Q293.161 16.2686 293.161 13.9175L293.161 13.0276Q293.15 10.6875 292.326 8.92419Q291.502 7.16089 289.992 6.22156Q288.481 5.28223 286.525 5.28223Q284.57 5.28223 283.059 6.23254Q281.549 7.18286 280.719 8.97363Q279.89 10.7644 279.89 13.1045L279.89 14.0054Q279.901 16.3015 280.73 18.0593Q281.56 19.8171 283.081 20.7675Q284.603 21.7178 286.547 21.7178Q288.514 21.7178 290.025 20.7675Q291.535 19.8171 292.348 18.0428ZM10.8435 14.7195L4.40552 14.7195L4.40552 21.498L1.62598 21.498L1.62598 5.50195L11.7883 5.50195L11.7883 7.74316L4.40552 7.74316L4.40552 12.5002L10.8435 12.5002L10.8435 14.7195ZM42.2633 15.3457L39.1651 15.3457L39.1651 21.498L36.3856 21.498L36.3856 5.50195L42.0106 5.50195Q44.7792 5.50195 46.2843 6.74444Q47.7894 7.98692 47.7894 10.3401Q47.7894 11.9454 47.0149 13.0284Q46.2403 14.1115 44.8561 14.6942L48.4486 21.3554L48.4486 21.498L45.4713 21.498L42.2633 15.3457ZM72.9909 21.498L75.7595 21.498L75.7595 5.50195L72.9909 5.50195L72.9909 21.498ZM114.265 21.498L111.486 21.498L104.356 10.1492L104.356 21.498L101.576 21.498L101.576 5.50195L104.356 5.50195L111.508 16.8948L111.508 5.50195L114.265 5.50195L114.265 21.498ZM149.86 21.498L152.64 21.498L152.64 5.50195L149.882 5.50195L149.882 16.8948L142.73 5.50195L139.95 5.50195L139.95 21.498L142.73 21.498L142.73 10.1492L149.86 21.498ZM254.578 21.498L251.81 21.498L251.81 5.50195L254.578 5.50195L254.578 21.498ZM188.311 13.0825Q188.311 10.4238 187.306 9.00659Q186.301 7.58936 184.455 7.58936Q182.653 7.58936 181.637 9.0011Q180.621 10.4128 180.599 12.9946L180.599 13.9175Q180.599 16.5542 181.626 17.9934Q182.653 19.4326 184.477 19.4326Q186.323 19.4326 187.317 18.0264Q188.311 16.6201 188.311 13.9175L188.311 13.0825ZM289.376 9.00659Q290.382 10.4238 290.382 13.0825L290.382 13.9175Q290.382 16.6201 289.387 18.0264Q288.393 19.4326 286.547 19.4326Q284.724 19.4326 283.696 17.9934Q282.669 16.5542 282.669 13.9175L282.669 12.9946Q282.691 10.4128 283.707 9.0011Q284.724 7.58936 286.525 7.58936Q288.371 7.58936 289.376 9.00659ZM39.1651 13.1045L42.0216 13.1045Q43.4278 13.1045 44.2188 12.3959Q45.0099 11.6873 45.0099 10.4568Q45.0099 9.17139 44.2793 8.46826Q43.5487 7.76514 42.0985 7.74316L39.1651 7.74316L39.1651 13.1045ZM215.413 15.7742L221.181 15.7742L221.181 13.6208L215.413 13.6208L215.413 15.7742Z" />
    </g>
  </g>
</svg>