<svg xmlns="http://www.w3.org/2000/svg" version="1.1" xmlns:xlink="http://www.w3.org/1999/xlink" xmlns:svgjs="http://svgjs.dev/svgjs" width="2000" height="1247" viewBox="0 0 2000 1247"><g transform="matrix(1,0,0,1,-1.2121212121212466,0.504858299595071)"><svg viewBox="0 0 396 247" data-background-color="#ffffff" preserveAspectRatio="xMidYMid meet" height="1247" width="2000" xmlns="http://www.w3.org/2000/svg" xmlns:xlink="http://www.w3.org/1999/xlink"><g id="tight-bounds" transform="matrix(1,0,0,1,0.2400000000000091,-0.09999999999999432)"><svg viewBox="0 0 395.52 247.2" height="247.2" width="395.52"><g><svg></svg></g><g><svg viewBox="0 0 395.52 247.2" height="247.2" width="395.52"><g transform="matrix(1,0,0,1,118.65599999999999,86.0065318735326)"><svg viewBox="0 0 158.208 75.1869362529348" height="75.1869362529348" width="158.208"><g><svg viewBox="0 0 158.208 75.1869362529348" height="75.1869362529348" width="158.208"><g><svg viewBox="0 0 158.208 75.1869362529348" height="75.1869362529348" width="158.208"><g><svg viewBox="0 0 158.208 75.1869362529348" height="75.1869362529348" width="158.208"><g id="textblocktransform"><svg viewBox="0 0 158.208 75.1869362529348" height="75.1869362529348" width="158.208" id="textblock"><g><svg viewBox="0 0 158.208 36.92737218695903" height="36.92737218695903" width="158.208"><g transform="matrix(1,0,0,1,0,0)"><svg width="158.208" viewBox="4.05 -39.95 173.29 40.45" height="36.92737218695903" data-palette-color="#001f3f"><path d="M9.95-34.65L9.95-2.1Q9.95 0.3 7 0.3L7 0.3Q4.05 0.3 4.05-2.1L4.05-2.1 4.05-36.7Q4.05-37.85 4.7-38.78 5.35-39.7 7.2-39.7L7.2-39.7 24.2-39.7Q26-39.7 26.1-37.2L26.1-37.2Q26.2-34.65 24.2-34.65L24.2-34.65 9.95-34.65ZM22.75-20.65L22.75-20.65Q22.75-19.8 22.43-19.03 22.1-18.25 21.53-17.7 20.95-17.15 20.2-16.82 19.45-16.5 18.55-16.5L18.55-16.5Q16.85-16.5 15.65-17.7 14.45-18.9 14.45-20.65L14.45-20.65Q14.45-22.4 15.65-23.6 16.85-24.8 18.55-24.8L18.55-24.8Q19.45-24.8 20.2-24.48 20.95-24.15 21.53-23.58 22.1-23 22.43-22.25 22.75-21.5 22.75-20.65ZM55.15-0.6L45.7-16.45 41.85-16.45Q41-16.45 40.52-17.13 40.05-17.8 40.05-18.95L40.05-18.95Q40.05-21.5 42.15-21.5L42.15-21.5 48-21.5Q49.85-21.5 50.6-22.55 51.35-23.6 51.35-24.85L51.35-24.85 51.35-31.3Q51.35-32.55 50.6-33.6 49.85-34.65 48-34.65L48-34.65 37.45-34.65 37.45-2.05Q37.45 0.35 34.5 0.35L34.5 0.35Q31.55 0.35 31.55-2.05L31.55-2.05 31.55-36.7Q31.55-38.5 32.47-39.1 33.4-39.7 34.7-39.7L34.7-39.7 49.25-39.7Q50.55-39.7 51.95-39.15 53.35-38.6 54.65-37.75L54.65-37.75 54.6-37.75Q55.9-36.8 56.6-35.27 57.3-33.75 57.3-31.75L57.3-31.75 57.3-24.45Q57.3-20.4 54.6-18.4L54.6-18.4Q54.05-18 53.42-17.65 52.8-17.3 52.15-16.95L52.15-16.95 60.15-3.75Q60.3-3.5 60.45-3.1 60.6-2.7 60.6-2.45L60.6-2.45Q60.6-1.25 58.9-0.15L58.9-0.15 58.9-0.2Q57.75 0.5 56.95 0.5L56.95 0.5Q55.8 0.5 55.1-0.65L55.1-0.65 55.15-0.6ZM71.4-37.55L71.4-2.1Q71.4 0.3 68.4 0.3L68.4 0.3Q65.45 0.3 65.45-2.1L65.45-2.1 65.45-37.55Q65.45-39.95 68.4-39.95L68.4-39.95Q71.4-39.95 71.4-37.55L71.4-37.55ZM101.54-10.5L101.54-37.55Q101.54-39.95 104.49-39.95L104.49-39.95Q107.44-39.95 107.44-37.55L107.44-37.55 107.44-3.05Q107.44-1.3 105.59-0.5L105.59-0.5 105.64-0.5Q104.84-0.15 103.94 0.05 103.04 0.25 102.19 0.25L102.19 0.25Q101.54 0.25 100.84 0.13 100.14 0 99.52-0.28 98.89-0.55 98.37-1.03 97.84-1.5 97.54-2.2L97.54-2.2 86.69-29.25 85.34-29.1 85.34-2.1Q85.34 0.3 82.34 0.3L82.34 0.3Q79.39 0.3 79.39-2.1L79.39-2.1 79.39-36.55Q79.39-38.6 81.19-39.3L81.19-39.3Q82.84-39.95 84.69-39.95L84.69-39.95Q85.99-39.95 87.32-39.43 88.64-38.9 89.34-37.45L89.34-37.45 100.14-10.35 101.54-10.5ZM137.04-10.5L137.04-37.55Q137.04-39.95 139.99-39.95L139.99-39.95Q142.94-39.95 142.94-37.55L142.94-37.55 142.94-3.05Q142.94-1.3 141.09-0.5L141.09-0.5 141.14-0.5Q140.34-0.15 139.44 0.05 138.54 0.25 137.69 0.25L137.69 0.25Q137.04 0.25 136.34 0.13 135.64 0 135.02-0.28 134.39-0.55 133.87-1.03 133.34-1.5 133.04-2.2L133.04-2.2 122.19-29.25 120.84-29.1 120.84-2.1Q120.84 0.3 117.84 0.3L117.84 0.3Q114.89 0.3 114.89-2.1L114.89-2.1 114.89-36.55Q114.89-38.6 116.69-39.3L116.69-39.3Q118.34-39.95 120.19-39.95L120.19-39.95Q121.49-39.95 122.82-39.43 124.14-38.9 124.84-37.45L124.84-37.45 135.64-10.35 137.04-10.5ZM158.39-39.7L169.29-39.7Q170.59-39.7 171.99-39.15 173.39-38.6 174.69-37.75L174.69-37.75 174.64-37.75Q175.94-36.8 176.64-35.27 177.34-33.75 177.34-31.75L177.34-31.75 177.34-8Q177.34-3.95 174.64-1.95L174.64-1.95Q173.34-1 171.96-0.48 170.59 0.05 169.29 0.05L169.29 0.05 158.39 0.05Q157.09 0.05 155.71-0.48 154.34-1 153.04-1.95L153.04-1.95Q151.74-2.95 151.04-4.42 150.34-5.9 150.34-8L150.34-8 150.34-31.75Q150.34-33.75 151.04-35.27 151.74-36.8 153.04-37.75L153.04-37.75 152.99-37.75Q154.29-38.6 155.69-39.15 157.09-39.7 158.39-39.7L158.39-39.7ZM159.64-5L168.04-5Q169.89-5 170.64-6.05 171.39-7.1 171.39-8.4L171.39-8.4 171.39-31.3Q171.39-32.55 170.64-33.6 169.89-34.65 168.04-34.65L168.04-34.65 159.64-34.65Q157.79-34.65 157.04-33.6 156.29-32.55 156.29-31.3L156.29-31.3 156.29-8.4Q156.29-7.1 157.04-6.05 157.79-5 159.64-5L159.64-5Z" opacity="1" transform="matrix(1,0,0,1,0,0)" fill="#001f3f" class="undefined-text-0" data-fill-palette-color="primary" id="text-0"></path></svg></g></svg></g><g transform="matrix(1,0,0,1,0,45.64503850336757)"><svg viewBox="0 0 158.208 29.541897749567227" height="29.541897749567227" width="158.208"><g transform="matrix(1,0,0,1,0,0)"><svg width="158.208" viewBox="4.35 -35.25 188.78 35.25" height="29.541897749567227" data-palette-color="#001f3f"><path d="M26.1 0L4.35 0 4.35-35.25 8.45-35.25 8.45-3.5 26.1-3.5 26.1 0ZM111.59 0L107.44 0 103.54-9.05 85.14-9.05 81.24 0 77.04 0 92.54-35.25 96.09-35.25 111.59 0ZM94.34-30.5L86.59-12.45 102.09-12.45 94.34-30.5ZM186.73-18.1Q189.78-17.3 191.45-15.1 193.13-12.9 193.13-9.6L193.13-9.6Q193.13-4.95 190.08-2.48 187.03 0 181.43 0L181.43 0 166.73 0 166.73-35.25 180.88-35.25Q186.33-35.25 189.33-32.85 192.33-30.45 192.33-26.05L192.33-26.05Q192.33-23.2 190.85-21.15 189.38-19.1 186.73-18.1L186.73-18.1ZM170.78-31.85L170.78-19.6 180.28-19.6Q184.23-19.6 186.25-21.2 188.28-22.8 188.28-25.85L188.28-25.85Q188.28-31.85 180.28-31.85L180.28-31.85 170.78-31.85ZM181.03-3.4Q185.18-3.4 187.15-4.93 189.13-6.45 189.13-9.7L189.13-9.7Q189.13-16.2 181.03-16.2L181.03-16.2 170.78-16.2 170.78-3.4 181.03-3.4Z" opacity="1" transform="matrix(1,0,0,1,0,0)" fill="#001f3f" class="undefined-text-1" data-fill-palette-color="secondary" id="text-1"></path></svg></g></svg></g></svg></g></svg></g></svg></g></svg></g></svg></g><g mask="url(#364a4072-1b66-475e-bb8f-88d233f6f39b)"><g transform="matrix(2.7386856096144396, 0, 0, 2.7386856096144396, 87.01440066121609, 1)"><svg xmlns="http://www.w3.org/2000/svg" xmlns:xlink="http://www.w3.org/1999/xlink" version="1.1" x="0" y="0" viewBox="9.563 5.234 80.875 89.532" enable-background="new 0 0 100 100" xml:space="preserve" height="89.532" width="80.875" class="icon-none" data-fill-palette-color="accent" id="none"><g fill="#001f3f" data-fill-palette-color="accent"><polygon points="32.422,26.658 31.843,31.444 33.256,33.87 37.052,34.224 39.932,31.797  " fill="#001f3f" data-fill-palette-color="accent"></polygon><g fill="#001f3f" data-fill-palette-color="accent"><polygon points="39.932,31.797 32.422,26.939 28.857,25.844 25.178,26.697 25.359,24.907 28.984,24.423 32.693,26.037     42.282,32.36 42.282,34.224   " fill="#001f3f" data-fill-palette-color="accent"></polygon></g><polygon points="67.577,26.658 68.158,31.444 66.745,33.87 62.948,34.224 60.068,31.797  " fill="#001f3f" data-fill-palette-color="accent"></polygon><g fill="#001f3f" data-fill-palette-color="accent"><polygon points="60.068,31.797 67.577,26.939 71.142,25.844 74.821,26.697 74.68,24.881 71.014,24.423 67.308,26.037     57.718,32.36 57.718,34.224   " fill="#001f3f" data-fill-palette-color="accent"></polygon></g><polygon points="55.646,33.175 50,28.281 44.352,33.175 43.957,38.824 46.807,36.126 50,30.929 53.192,36.126 56.044,38.824  " fill="#001f3f" data-fill-palette-color="accent"></polygon><polygon points="50,10.778 47.318,9.981 50,19.163 52.682,9.981  " fill="#001f3f" data-fill-palette-color="accent"></polygon><g fill="#001f3f" data-fill-palette-color="accent"><polygon points="40.721,43.632 44.427,47.65 46.555,48.772 46.191,47.278 40.992,42.321 34.016,39.751 36.723,43.632   " fill="#001f3f" data-fill-palette-color="accent"></polygon><polygon points="59.006,42.321 53.81,47.278 53.446,48.772 55.573,47.65 59.277,43.632 63.277,43.632 65.983,39.751   " fill="#001f3f" data-fill-palette-color="accent"></polygon><polygon points="55.983,40.515 52.573,36.867 50,30.929 47.427,36.867 44.016,40.515 41.251,40.81 34.016,39.751 41.869,41.735     46.979,46.749 50,60.319 53.022,46.749 58.131,41.735 65.983,39.751 58.748,40.81   " fill="#001f3f" data-fill-palette-color="accent"></polygon></g><path d="M78.07 18.811L60.068 6.075 49.997 5.234 39.932 6.075 21.93 18.811 9.563 64.02l40.424 30.746L90.438 64.02 78.07 18.811zM70.503 68.217l-6.254-5.501-6.432 11.11L50 66.952l-7.817 6.874-6.432-11.11-6.255 5.501-5.849-11.484-4.833 4.628 5.93-40.011L41.259 7.799l5.385-0.247 3.354 1.008 3.359-1.008 5.383 0.247L75.258 21.35l5.928 40.011-4.833-4.628L70.503 68.217z" fill="#001f3f" data-fill-palette-color="accent"></path></g></svg></g></g></svg></g><defs><mask id="364a4072-1b66-475e-bb8f-88d233f6f39b"><rect width="640" height="400" fill="white"></rect><rect width="174.02880000000002" height="92.62226888575188" fill="black" x="232.98559999999998" y="153.68886555712407" id="transform-me" transform="matrix(1,0,0,1,-122.24000000000001,-76.4)"></rect></mask></defs></svg><rect width="395.52" height="247.2" fill="none" stroke="none" visibility="hidden"></rect></g></svg></g></svg>