<svg xmlns="http://www.w3.org/2000/svg" version="1.1" xmlns:xlink="http://www.w3.org/1999/xlink" xmlns:svgjs="http://svgjs.dev/svgjs" width="128" height="128" viewBox="0 0 128 128"><g transform="matrix(0.44206008583690987,0,0,0.44206008583690987,35.77023608756808,12.33387096774193)"><svg viewBox="0 0 85 155" data-background-color="#051726" preserveAspectRatio="xMidYMid meet" height="233" width="128" xmlns="http://www.w3.org/2000/svg" xmlns:xlink="http://www.w3.org/1999/xlink"><g id="tight-bounds" transform="matrix(1,0,0,1,-0.09325892857143003,0.25)"><svg viewBox="0 0 85.18651785714285 154.5" height="154.5" width="85.18651785714285"><g><svg viewBox="0 0 85.18651785714285 154.5" height="154.5" width="85.18651785714285"><g><svg viewBox="0 0 85.18651785714285 154.5" height="154.5" width="85.18651785714285"><g><svg viewBox="0 0 85.18651785714285 154.5" height="154.5" width="85.18651785714285"><g><svg viewBox="0 0 85.18651785714285 154.5" height="154.5" width="85.18651785714285"><g transform="matrix(1,0,0,1,0,0)"><svg width="85.18651785714285" viewBox="4.05 -39.7 22.054687583310002 40" height="154.5" data-palette-color="#ffffff"><path d="M9.95-34.65L9.95-2.1Q9.95 0.3 7 0.3L7 0.3Q4.05 0.3 4.05-2.1L4.05-2.1 4.05-36.7Q4.05-37.85 4.7-38.78 5.35-39.7 7.2-39.7L7.2-39.7 24.2-39.7Q26-39.7 26.1-37.2L26.1-37.2Q26.2-34.65 24.2-34.65L24.2-34.65 9.95-34.65ZM22.75-20.65L22.75-20.65Q22.75-19.8 22.43-19.03 22.1-18.25 21.53-17.7 20.95-17.15 20.2-16.82 19.45-16.5 18.55-16.5L18.55-16.5Q16.85-16.5 15.65-17.7 14.45-18.9 14.45-20.65L14.45-20.65Q14.45-22.4 15.65-23.6 16.85-24.8 18.55-24.8L18.55-24.8Q19.45-24.8 20.2-24.48 20.95-24.15 21.53-23.58 22.1-23 22.43-22.25 22.75-21.5 22.75-20.65Z" opacity="1" transform="matrix(1,0,0,1,0,0)" fill="#000000" class="undefined-text-0" data-fill-palette-color="primary" id="text-0"></path></svg></g></svg></g></svg></g></svg></g><g></g></svg></g><defs></defs></svg><rect width="85.18651785714285" height="154.5" fill="none" stroke="none" visibility="hidden"></rect></g></svg></g></svg>