<svg xmlns="http://www.w3.org/2000/svg" version="1.1" xmlns:xlink="http://www.w3.org/1999/xlink" xmlns:svgjs="http://svgjs.dev/svgjs" width="2000" height="732" viewBox="0 0 2000 732"><g transform="matrix(1,0,0,1,-1.2121212121212466,-1.140281342856042)"><svg viewBox="0 0 396 145" data-background-color="#051726" preserveAspectRatio="xMidYMid meet" height="732" width="2000" xmlns="http://www.w3.org/2000/svg" xmlns:xlink="http://www.w3.org/1999/xlink"><g id="tight-bounds" transform="matrix(1,0,0,1,0.2400000000000091,0.22587540261493189)"><svg viewBox="0 0 395.52 144.54824919477014" height="144.54824919477014" width="395.52"><g><svg viewBox="0 0 395.52 144.54824919477014" height="144.54824919477014" width="395.52"><g><svg viewBox="0 0 395.52 144.54824919477014" height="144.54824919477014" width="395.52"><g><svg viewBox="0 0 395.52 144.54824919477014" height="144.54824919477014" width="395.52"><g><rect width="395.52" height="107.37159628848588" fill="none" stroke-width="9.018103199999999" stroke="#000000" data-fill-palette-color="none" data-stroke-palette-color="tertiary"></rect><rect width="395.52" height="37.17665290628427" y="107.37159628848588" fill="#000000" data-fill-palette-color="tertiary"></rect></g><g><svg viewBox="0 0 395.52 107.37159628848588" height="107.37159628848588" width="395.52"><g transform="matrix(1,0,0,1,23.607599999999998,23.607599999999998)"><svg width="348.3048" viewBox="4.05 -40.45 237.07999999999998 40.95" height="60.15639628848587" data-palette-color="#ffffff"><path d="M9.95-34.65L9.95-2.1Q9.95 0.3 7 0.3L7 0.3Q4.05 0.3 4.05-2.1L4.05-2.1 4.05-36.7Q4.05-37.85 4.7-38.78 5.35-39.7 7.2-39.7L7.2-39.7 24.2-39.7Q26-39.7 26.1-37.2L26.1-37.2Q26.2-34.65 24.2-34.65L24.2-34.65 9.95-34.65ZM22.75-20.65L22.75-20.65Q22.75-19.8 22.43-19.03 22.1-18.25 21.53-17.7 20.95-17.15 20.2-16.82 19.45-16.5 18.55-16.5L18.55-16.5Q16.85-16.5 15.65-17.7 14.45-18.9 14.45-20.65L14.45-20.65Q14.45-22.4 15.65-23.6 16.85-24.8 18.55-24.8L18.55-24.8Q19.45-24.8 20.2-24.48 20.95-24.15 21.53-23.58 22.1-23 22.43-22.25 22.75-21.5 22.75-20.65ZM55.15-0.6L45.7-16.45 41.85-16.45Q41-16.45 40.52-17.13 40.05-17.8 40.05-18.95L40.05-18.95Q40.05-21.5 42.15-21.5L42.15-21.5 48-21.5Q49.85-21.5 50.6-22.55 51.35-23.6 51.35-24.85L51.35-24.85 51.35-31.3Q51.35-32.55 50.6-33.6 49.85-34.65 48-34.65L48-34.65 37.45-34.65 37.45-2.05Q37.45 0.35 34.5 0.35L34.5 0.35Q31.55 0.35 31.55-2.05L31.55-2.05 31.55-36.7Q31.55-38.5 32.47-39.1 33.4-39.7 34.7-39.7L34.7-39.7 49.25-39.7Q50.55-39.7 51.95-39.15 53.35-38.6 54.65-37.75L54.65-37.75 54.6-37.75Q55.9-36.8 56.6-35.27 57.3-33.75 57.3-31.75L57.3-31.75 57.3-24.45Q57.3-20.4 54.6-18.4L54.6-18.4Q54.05-18 53.42-17.65 52.8-17.3 52.15-16.95L52.15-16.95 60.15-3.75Q60.3-3.5 60.45-3.1 60.6-2.7 60.6-2.45L60.6-2.45Q60.6-1.25 58.9-0.15L58.9-0.15 58.9-0.2Q57.75 0.5 56.95 0.5L56.95 0.5Q55.8 0.5 55.1-0.65L55.1-0.65 55.15-0.6ZM71.4-37.55L71.4-2.1Q71.4 0.3 68.4 0.3L68.4 0.3Q65.45 0.3 65.45-2.1L65.45-2.1 65.45-37.55Q65.45-39.95 68.4-39.95L68.4-39.95Q71.4-39.95 71.4-37.55L71.4-37.55ZM101.54-10.5L101.54-37.55Q101.54-39.95 104.49-39.95L104.49-39.95Q107.44-39.95 107.44-37.55L107.44-37.55 107.44-3.05Q107.44-1.3 105.59-0.5L105.59-0.5 105.64-0.5Q104.84-0.15 103.94 0.05 103.04 0.25 102.19 0.25L102.19 0.25Q101.54 0.25 100.84 0.13 100.14 0 99.52-0.28 98.89-0.55 98.37-1.03 97.84-1.5 97.54-2.2L97.54-2.2 86.69-29.25 85.34-29.1 85.34-2.1Q85.34 0.3 82.34 0.3L82.34 0.3Q79.39 0.3 79.39-2.1L79.39-2.1 79.39-36.55Q79.39-38.6 81.19-39.3L81.19-39.3Q82.84-39.95 84.69-39.95L84.69-39.95Q85.99-39.95 87.32-39.43 88.64-38.9 89.34-37.45L89.34-37.45 100.14-10.35 101.54-10.5ZM137.04-10.5L137.04-37.55Q137.04-39.95 139.99-39.95L139.99-39.95Q142.94-39.95 142.94-37.55L142.94-37.55 142.94-3.05Q142.94-1.3 141.09-0.5L141.09-0.5 141.14-0.5Q140.34-0.15 139.44 0.05 138.54 0.25 137.69 0.25L137.69 0.25Q137.04 0.25 136.34 0.13 135.64 0 135.02-0.28 134.39-0.55 133.87-1.03 133.34-1.5 133.04-2.2L133.04-2.2 122.19-29.25 120.84-29.1 120.84-2.1Q120.84 0.3 117.84 0.3L117.84 0.3Q114.89 0.3 114.89-2.1L114.89-2.1 114.89-36.55Q114.89-38.6 116.69-39.3L116.69-39.3Q118.34-39.95 120.19-39.95L120.19-39.95Q121.49-39.95 122.82-39.43 124.14-38.9 124.84-37.45L124.84-37.45 135.64-10.35 137.04-10.5ZM158.39-39.7L169.29-39.7Q170.59-39.7 171.99-39.15 173.39-38.6 174.69-37.75L174.69-37.75 174.64-37.75Q175.94-36.8 176.64-35.27 177.34-33.75 177.34-31.75L177.34-31.75 177.34-8Q177.34-3.95 174.64-1.95L174.64-1.95Q173.34-1 171.96-0.48 170.59 0.05 169.29 0.05L169.29 0.05 158.39 0.05Q157.09 0.05 155.71-0.48 154.34-1 153.04-1.95L153.04-1.95Q151.74-2.95 151.04-4.42 150.34-5.9 150.34-8L150.34-8 150.34-31.75Q150.34-33.75 151.04-35.27 151.74-36.8 153.04-37.75L153.04-37.75 152.99-37.75Q154.29-38.6 155.69-39.15 157.09-39.7 158.39-39.7L158.39-39.7ZM159.64-5L168.04-5Q169.89-5 170.64-6.05 171.39-7.1 171.39-8.4L171.39-8.4 171.39-31.3Q171.39-32.55 170.64-33.6 169.89-34.65 168.04-34.65L168.04-34.65 159.64-34.65Q157.79-34.65 157.04-33.6 156.29-32.55 156.29-31.3L156.29-31.3 156.29-8.4Q156.29-7.1 157.04-6.05 157.79-5 159.64-5L159.64-5ZM194.34-17.25L184.24-17.25Q181.94-17.25 181.94-19.75L181.94-19.75Q181.99-21.05 182.59-21.68 183.19-22.3 184.24-22.3L184.24-22.3 194.34-22.3Q196.59-22.3 196.59-19.75L196.59-19.75Q196.69-17.25 194.34-17.25L194.34-17.25ZM206.78-27.9L206.78-2.1Q206.78 0.3 204.03 0.3L204.03 0.3Q201.23 0.3 201.23-2.1L201.23-2.1 201.23-27.9Q201.23-30.3 204.03-30.3L204.03-30.3Q206.78-30.3 206.78-27.9L206.78-27.9ZM207.83-36.6L207.83-36.6Q207.83-35 206.73-33.9 205.63-32.8 204.03-32.8L204.03-32.8Q202.43-32.8 201.31-33.9 200.18-35 200.18-36.6L200.18-36.6Q200.18-38.25 201.31-39.35 202.43-40.45 204.03-40.45L204.03-40.45Q205.63-40.45 206.73-39.35 207.83-38.25 207.83-36.6ZM222.18-39.7L233.08-39.7Q234.38-39.7 235.78-39.15 237.18-38.6 238.48-37.75L238.48-37.75 238.43-37.75Q239.73-36.8 240.43-35.27 241.13-33.75 241.13-31.75L241.13-31.75 241.13-8Q241.13-3.95 238.43-1.95L238.43-1.95Q237.13-1 235.75-0.48 234.38 0.05 233.08 0.05L233.08 0.05 222.18 0.05Q220.88 0.05 219.5-0.48 218.13-1 216.83-1.95L216.83-1.95Q215.53-2.95 214.83-4.42 214.13-5.9 214.13-8L214.13-8 214.13-31.75Q214.13-33.75 214.83-35.27 215.53-36.8 216.83-37.75L216.83-37.75 216.78-37.75Q218.08-38.6 219.48-39.15 220.88-39.7 222.18-39.7L222.18-39.7ZM223.43-5L231.83-5Q233.68-5 234.43-6.05 235.18-7.1 235.18-8.4L235.18-8.4 235.18-31.3Q235.18-32.55 234.43-33.6 233.68-34.65 231.83-34.65L231.83-34.65 223.43-34.65Q221.58-34.65 220.83-33.6 220.08-32.55 220.08-31.3L220.08-31.3 220.08-8.4Q220.08-7.1 220.83-6.05 221.58-5 223.43-5L223.43-5Z" opacity="1" transform="matrix(1,0,0,1,0,0)" fill="#000000" class="undefined-text-0" data-fill-palette-color="primary" id="text-0"></path></svg></g></svg></g></svg></g></svg></g><g></g></svg></g><defs></defs></svg><rect width="395.52" height="144.54824919477014" fill="none" stroke="none" visibility="hidden"></rect></g></svg></g></svg>